<?xml version="1.0" encoding="UTF-8" standalone="no"?>
<!-- Created with Inkscape (http://www.inkscape.org/) -->
<svg xmlns:dc="http://purl.org/dc/elements/1.1/" xmlns:cc="http://creativecommons.org/ns#" xmlns:rdf="http://www.w3.org/1999/02/22-rdf-syntax-ns#" xmlns:svg="http://www.w3.org/2000/svg" xmlns="http://www.w3.org/2000/svg" xmlns:sodipodi="http://sodipodi.sourceforge.net/DTD/sodipodi-0.dtd" xmlns:inkscape="http://www.inkscape.org/namespaces/inkscape" width="861.95398" height="451.99902" viewBox="0 0 228.05866 119.5914" version="1.1" id="svg1040" inkscape:version="0.92.0 r15299" sodipodi:docname="gitf.svg">
  <defs id="defs1034"/>
  <sodipodi:namedview id="base" pagecolor="#ffffff" bordercolor="#666666" borderopacity="1.0" inkscape:pageopacity="0.0" inkscape:pageshadow="2" inkscape:zoom="0.47482464" inkscape:cx="331.90783" inkscape:cy="443.57135" inkscape:document-units="mm" inkscape:current-layer="layer1" showgrid="false" fit-margin-top="0" fit-margin-left="0" fit-margin-right="0" fit-margin-bottom="0" units="px" inkscape:window-width="1280" inkscape:window-height="744" inkscape:window-x="-4" inkscape:window-y="-4" inkscape:window-maximized="1"/>
  <metadata id="metadata1037">
    <rdf:RDF>
      <cc:Work rdf:about="">
        <dc:format>image/svg+xml</dc:format>
        <dc:type rdf:resource="http://purl.org/dc/dcmitype/StillImage"/>
        <dc:title/>
      </cc:Work>
    </rdf:RDF>
  </metadata>
  <g inkscape:label="Layer 1" inkscape:groupmode="layer" id="layer1" transform="translate(-17.18272,-215.76524)">
    <g id="g1327" transform="matrix(0.26458333,0,0,0.26458333,-1.9077621,209.41524)">
      <g id="g1299">
	<g id="g1285">
		<path id="path1281" d="m 419.671,403.727 c 14.757,-16.554 22.561,-40.735 22.561,-73.316 V 148.37 h -31.174 v 28.48 h -0.385 c -5.905,-11.029 -14.113,-19.303 -24.631,-24.823 -10.524,-5.515 -22.069,-8.275 -34.637,-8.275 -17.193,0 -31.691,3.271 -43.49,9.814 -11.804,6.543 -21.299,14.95 -28.479,25.209 -7.187,10.264 -12.315,21.552 -15.395,33.868 -3.079,12.315 -4.618,24.378 -4.618,36.177 0,13.603 1.858,26.496 5.581,38.679 3.716,12.19 9.296,22.9 16.741,32.137 7.439,9.236 16.675,16.548 27.71,21.936 11.035,5.388 23.994,8.082 38.877,8.082 6.158,0 12.376,-0.769 18.665,-2.309 6.291,-1.539 12.19,-3.782 17.71,-6.735 5.514,-2.946 10.452,-6.669 14.817,-11.16 4.36,-4.487 7.95,-9.813 10.776,-15.972 h 0.757 v 13.084 c 0,11.293 -1.094,21.553 -3.272,30.79 -2.182,9.237 -5.712,17.127 -10.583,23.668 -4.877,6.543 -11.035,11.672 -18.474,15.395 -7.445,3.717 -16.549,5.581 -27.325,5.581 -5.389,0 -11.035,-0.579 -16.935,-1.732 -2.13,-0.416 -4.2,-0.928 -6.211,-1.53 -2.188,-0.772 -4.358,-1.557 -6.51,-2.356 -0.2,-0.085 -0.399,-0.172 -0.598,-0.259 v 0.036 C 236.622,364.583 180.992,310.909 180.992,250.003 c 0,-97.147 141.523,-175.899 316.1,-175.899 97.253,0 184.451,22.15 242.436,60.593 C 676.24,70.283 562.757,25.022 433.005,25 234.282,24.965 73.17,125.674 73.153,249.938 c -0.012,84.821 75.042,158.697 185.893,197.058 88.919,3.044 134.048,-13.459 160.625,-43.269 z M 406.248,271.526 c -2.182,9.236 -5.58,17.512 -10.199,24.823 -4.617,7.314 -10.715,13.219 -18.28,17.703 -7.571,4.493 -16.742,6.735 -27.517,6.735 -10.777,0 -19.761,-2.242 -26.941,-6.735 -7.186,-4.484 -12.959,-10.39 -17.319,-17.703 -4.366,-7.311 -7.444,-15.454 -9.237,-24.439 -1.797,-8.978 -2.694,-17.956 -2.694,-26.94 0,-9.489 1.088,-18.6 3.271,-27.326 2.178,-8.719 5.641,-16.417 10.392,-23.092 4.745,-6.669 10.837,-11.991 18.281,-15.972 7.439,-3.975 16.417,-5.965 26.941,-5.965 10.259,0 18.984,2.057 26.17,6.158 7.18,4.107 13.019,9.561 17.511,16.356 4.486,6.801 7.758,14.432 9.814,22.899 2.051,8.467 3.079,17.066 3.079,25.786 0,9.238 -1.095,18.475 -3.272,27.712 z" inkscape:connector-curvature="0" style="fill:#fafafa"/>

		<path id="path1283" d="m 434.849,422.485 c -18.854,17.113 -52.532,36.647 -98.397,44.316 30.707,5.339 63.065,8.194 96.49,8.198 129.236,0.025 242.425,-45.091 305.881,-109.055 -57.984,38.206 -144.83,59.951 -241.728,59.951 -23.018,0.002 -40.626,-0.809 -62.246,-3.41 z" inkscape:connector-curvature="0" style="fill:#fafafa"/>

	</g>

	<g id="g1295">
		<g id="g1289">
			<path id="path1287" d="M 633.84,347.908 H 586.875 V 189.705 h -58.922 v -40.234 h 164.81 v 40.234 H 633.84 Z" inkscape:connector-curvature="0" style="fill:#fafafa"/>

		</g>

		<g id="g1293">
			<path id="path1291" d="M 764.173,347.908 H 717.206 V 149.471 h 144.988 v 40.234 h -98.021 v 37.128 h 85.803 v 40.233 h -85.803 z" inkscape:connector-curvature="0" style="fill:#fafafa"/>

		</g>

	</g>

	<path id="path1297" d="m 469.554,100.031 h 32.714 v 247.313 h -32.714 z" inkscape:connector-curvature="0" style="fill:#fafafa"/>

</g>
      <g id="g1305">
	<polygon id="polygon1301" points="895.435,155.289 895.435,174.4 889.017,174.4 889.017,155.289 881.67,155.289 881.67,149.769 902.782,149.769 902.782,155.289 902.783,155.289 " style="fill:#fafafa"/>

	<polygon id="polygon1303" points="919.411,166.19 923.654,149.769 933.107,149.769 933.107,174.4 927.069,174.4 927.069,155.703 927.001,155.703 921.826,174.4 916.929,174.4 911.752,155.703 911.683,155.703 911.683,174.4 905.647,174.4 905.647,149.769 915.1,149.769 919.342,166.19 " style="fill:#fafafa"/>

</g>
    </g>
  </g>
</svg>
